<?xml version="1.0" encoding="UTF-8"?><!DOCTYPE svg  PUBLIC '-//W3C//DTD SVG 1.1//EN' 'http://www.w3.org/Graphics/SVG/1.1/DTD/svg11.dtd'><svg enable-background="new 0 0 80 80" version="1.1" viewBox="0 0 80 80" xml:space="preserve" xmlns="http://www.w3.org/2000/svg"><path d="m-899.3 121.69" fill="none" stroke="#fff" stroke-miterlimit="10" stroke-width="2"/><path d="m40 40" fill="none" stroke="#fff" stroke-miterlimit="10" stroke-width="2"/><path d="m41.533 40.529c-4.924-10.027-9.848-20.054-14.772-30.083-0.173-0.349-0.601-0.561-0.978-0.561h-14.672c-0.904 0-1.352 0.951-0.979 1.705 9.581 19.322 19.16 38.646 28.739 57.97 0.369 0.741 1.588 0.736 1.957 0 9.678-19.322 19.359-38.646 29.041-57.97 0.375-0.753-0.081-1.705-0.979-1.705h-17.35c-1.462 0-1.462 2.266 0 2.266h17.35c-0.327-0.567-0.651-1.136-0.979-1.705-9.68 19.323-19.358 38.646-29.04 57.97h1.958c-9.578-19.323-19.159-38.646-28.737-57.97-0.326 0.569-0.652 1.138-0.978 1.705h12.572 2.002c-0.809 0-1.077-0.959-0.579 0.057 0.821 1.672 1.641 3.344 2.462 5.014 4.001 8.151 8.004 16.301 12.008 24.453 0.644 1.311 2.597 0.16 1.954-1.146z" fill="#fff"/></svg>